<?xml version="1.0" encoding="UTF-8"?>
<!-- Created with Inkscape (http://www.inkscape.org/) -->
<svg width="31.662mm" height="34.391mm" version="1.1" viewBox="0 0 31.662 34.391" xmlns="http://www.w3.org/2000/svg">
 <g transform="translate(-52.408 -58.165)">
  <ellipse cx="68.239" cy="73.827" rx="15.409" ry="15.239" fill="#34495e" stroke="#41b883" stroke-width=".844"/>
  <g transform="translate(-.024797 2.2083)" fill="none" stroke="#41b883" stroke-width="1.164">
   <ellipse cx="62.386" cy="72.438" rx="3.9219" ry="4.1178"/>
   <path d="m69.954 68.726 6.9445 7.5431"/>
   <path d="m77.197 69.026-6.9445 7.3037"/>
  </g>
  <rect x="61.243" y="86.686" width="14.428" height="5.8669" fill="#34495e"/>
  <g fill="#41b883">
   <rect x="68.158" y="89.922" width=".61363" height="2.6223"/>
   <rect x="70.395" y="89.931" width=".61363" height="2.6223"/>
   <rect x="72.7" y="89.931" width=".61363" height="2.6223"/>
   <rect x="65.935" y="89.931" width=".61363" height="2.6223"/>
   <rect transform="matrix(-.0025122 -1 1 -.00023651 0 0)" x="-92.571" y="61.013" width=".61363" height="14.438"/>
   <rect x="63.511" y="89.931" width=".61363" height="2.6223"/>
   <rect x="61.236" y="83.935" width=".61363" height="8.618"/>
   <rect x="75.086" y="83.849" width=".61363" height="8.618"/>
  </g>
 </g>
</svg>
